<svg xmlns="http://www.w3.org/2000/svg" viewBox="75 219 708 226">
    <path fill="#95c11f"
        d="M519 445a4 4 0 0 1-3-1 1 1 0 0 1 0-2 90 90 0 0 1 3-8l2-3-1-1-1-1 1-2 1-1h2v-1a34 34 0 0 1 3-4 16 16 0 0 0 2-3h-1a3 3 0 0 1-1-1v-2l2-2 4-1a100 100 0 0 1 19-2h5a8 8 0 0 1 4 1v3l-1 1a3 3 0 0 1-1 0h-1a23 23 0 0 0-2-1h-5a222 222 0 0 0-8 1 32 32 0 0 0-5 0l-2 1-2 3-2 3-2 3a164 164 0 0 0 8-2 42 42 0 0 1 6-1h1l3 2v2h-1a170 170 0 0 1-11 1 44 44 0 0 0-9 3 57 57 0 0 0-5 10h1a163 163 0 0 1 7-1l1-1a160 160 0 0 1 13-1h4l1 1v3h-1a66 66 0 0 0-10 1 142 142 0 0 0-13 2 35 35 0 0 1-5 1Zm39 0-1-1v-1a45 45 0 0 1 6-10l1-2 1-2a180 180 0 0 0 5-8 184 184 0 0 1 2-4l3-1h1a6 6 0 0 1 2 3l1 5a302 302 0 0 0 3 11l2 3h1l1-2a46 46 0 0 0 5-8 149 149 0 0 0 4-10 285 285 0 0 0 3-5l2-1h1l1 2v1a282 282 0 0 1-6 13 200 200 0 0 1-7 12v1l-4 2-4-2a32 32 0 0 1-4-10 77 77 0 0 1-2-8l-2 3a89 89 0 0 0-6 9 514 514 0 0 0-4 7l-1 2-1 1h-3Zm49 0a4 4 0 0 1-3-1 1 1 0 0 1 0-2 90 90 0 0 1 3-8l2-3-1-1-1-1 1-2 1-1h2v-1a34 34 0 0 1 3-4 16 16 0 0 0 2-3h-1a3 3 0 0 1-1-1v-2l2-2 5-1a100 100 0 0 1 18-2h5l4 1 1 2-1 1v1h-1a3 3 0 0 1-1 0h-1a23 23 0 0 0-2-1h-5a222 222 0 0 0-8 1h-5a9 9 0 0 0-2 1 16 16 0 0 0-2 3l-2 3-2 3a164 164 0 0 0 8-2 42 42 0 0 1 6-1h1l3 2v2h-1a170 170 0 0 1-11 1 49 49 0 0 0-9 3 57 57 0 0 0-5 10h1a163 163 0 0 1 7-1l2-1a160 160 0 0 1 12-1h4l1 1v3h-1a66 66 0 0 0-10 1 142 142 0 0 0-12 2 35 35 0 0 1-5 1h-1Zm41 1-2-2v-4a113 113 0 0 1 9-16l3-4h-3l-2-1v-1l1-1v-1h1a66 66 0 0 1 20-8 29 29 0 0 1 7 0 7 7 0 0 1 4 2v4c0 2-2 3-4 5a55 55 0 0 1-9 5 129 129 0 0 1-15 5 34 34 0 0 0 6 4l4 2a187 187 0 0 1 7 5 6 6 0 0 1 2 2s1 2-1 3l-2-1a44 44 0 0 1-3-2l-2-1-1-1-1-1-6-3-5-4-1 1-2 3a73 73 0 0 0-3 7l-1 2-1 1Zm32-33a53 53 0 0 0-7 0l-6 2-4 4-3 6 1-1a54 54 0 0 0 20-10l1-1h-2Zm13 33-3-1a8 8 0 0 1-3-4l-1-5 2-6a35 35 0 0 1 7-10 40 40 0 0 1 9-8l4-1a4 4 0 0 1 3 0l2 1a6 6 0 0 1 2 4 3 3 0 0 1 0 2 3 3 0 0 1-2 1 2 2 0 0 1-1 0l-1-1v-3h-1a21 21 0 0 0-13 9 63 63 0 0 0-5 9 17 17 0 0 0-2 5l1 2 1 1h1l3-1a34 34 0 0 0 9-5 46 46 0 0 0 6-5h-2l-4 2h-2l-2 1h-1a2 2 0 0 1-1 0 3 3 0 0 1-1-3l1-2a255 255 0 0 1 17-4l3-1 1 1 1 1v2l-2 1a247 247 0 0 1-10 9l-2 1-2 2-1 1a33 33 0 0 1-8 4l-3 1Zm31-1a2 2 0 0 1-1 0l-1-1v-2a14 14 0 0 1 0-2v-1l12-26 1-1h1l1 1a7 7 0 0 1 0 4 1090 1090 0 0 1-7 13 150 150 0 0 0-4 14l-1 1h-1Zm18 0a4 4 0 0 1-3-1 1 1 0 0 1 0-2 90 90 0 0 1 3-8l2-3-1-1-1-1 1-2 1-1h2v-1a32 32 0 0 1 3-4 16 16 0 0 0 2-3h-1a3 3 0 0 1-1-1v-2l2-2 4-1a99 99 0 0 1 19-2h5l3 1 1 2v2h-1a3 3 0 0 1-1 0h-1a20 20 0 0 0-2-1h-5a222 222 0 0 0-9 1 32 32 0 0 0-4 0 9 9 0 0 0-2 1 16 16 0 0 0-2 3l-2 3-2 3a181 181 0 0 0 7-2 42 42 0 0 1 6-1h2l3 2v2h-1a170 170 0 0 1-11 1 44 44 0 0 0-9 3 57 57 0 0 0-5 10h1a163 163 0 0 1 7-1l1-1a160 160 0 0 1 13-1h4l1 1v3h-1a66 66 0 0 0-11 1 142 142 0 0 0-12 2 31 31 0 0 1-5 1Z" />
    <path fill="#1d1d1b"
        d="M167 344h-59V224H75v148h114c-9-8-16-18-22-28Zm193 28V224h100v28h-66v29h59v28h-59v35h71v28H360Zm317 0V224h100v28h-67v29h60v28h-60v35h72v28H677Zm-68 0a893 893 0 0 1-31-64l-10-24-10 24a1164 1164 0 0 1-21 47l-9 17h-30a771 771 0 0 1-4-33l-4-38a3658 3658 0 0 1-4-77h32l2 47 3 52a9736 9736 0 0 1 18-42 3504 3504 0 0 1 16-38h24a4743 4743 0 0 0 16 38 2920 2920 0 0 0 18 42 1259 1259 0 0 0 3-52l2-47h32a3756 3756 0 0 1-4 77l-3 38a739 739 0 0 1-4 33h-32ZM299 231l-17 26a49 49 0 0 1 21 41c0 27-20 49-45 49s-45-22-45-49c0-17 8-32 21-41l-17-26a79 79 0 1 0 82 0Z" />
    <path fill="#95c11f" d="M242 221v32a43 43 0 0 1 32 0v-32a79 79 0 0 0-32 0Z" />
</svg>